<?xml version="1.0" encoding="utf-8"?>
<!-- Generator: Adobe Illustrator 18.0.0, SVG Export Plug-In . SVG Version: 6.00 Build 0)  -->
<!DOCTYPE svg PUBLIC "-//W3C//DTD SVG 1.1//EN" "http://www.w3.org/Graphics/SVG/1.1/DTD/svg11.dtd">
<svg version="1.1" id="ecommerce_1_" xmlns="http://www.w3.org/2000/svg" xmlns:xlink="http://www.w3.org/1999/xlink" x="0px"
	 y="0px" viewBox="0 0 115 115" style="enable-background:new 0 0 115 115;" xml:space="preserve">
<style type="text/css">
	.st0{fill:#FFEEAD;}
	.st1{fill:#C9B77D;}
	.st2{fill:#99734A;}
	.st3{fill:#FF6F69;}
	.st4{fill:#96CEB4;}
	.st5{fill:none;}
	.st6{fill:#AA9865;}
	.st7{fill:#71A58A;}
	.st8{fill:#FFCC5C;}
	.st9{fill:#825E3B;}
	.st10{fill:#639376;}
	.st11{fill:#E05858;}
	.st12{fill:#C1821E;}
	.st13{fill:#D6A041;}
	.st14{fill:#B28559;}
	.st15{fill:#BF4343;}
	.st16{fill:#D3C089;}
	.st17{fill:#7C5C3C;}
	.st18{fill:#FDCC5C;}
	.st19{fill:#FFFFFF;}
</style>
<g id="pay_with_paypal_1_">
	<g>
		<g>
			<g>
				<path class="st0" d="M107.524,21.141H7.476C3.347,21.141,0,24.488,0,28.617v57.766c0,4.129,3.347,7.476,7.476,7.476h100.047
					c4.129,0,7.476-3.347,7.476-7.476V28.617C115,24.488,111.653,21.141,107.524,21.141z"/>
			</g>
		</g>
		<g>
			<g>
				<path class="st16" d="M113.836,24.623L2.061,91.528c1.362,1.433,3.282,2.332,5.415,2.332h100.047
					c4.129,0,7.476-3.347,7.476-7.476V28.617C115,27.146,114.569,25.779,113.836,24.623z"/>
			</g>
		</g>
		<g>
			<g>
				<rect x="0" y="30.181" class="st2" width="115" height="13.911"/>
			</g>
		</g>
		<g>
			<g>
				<polygon class="st9" points="104.551,30.181 81.31,44.092 115,44.092 115,30.181 				"/>
			</g>
		</g>
	</g>
	<g>
		<g>
			<g>
				<path class="st5" d="M15.07,57.803c0.358-0.024,0.718-0.005,1.078-0.005c0.562-0.007,1.125,0.013,1.684-0.083
					c0.838-0.144,1.599-0.421,2.107-1.161c0.421-0.614,0.539-1.315,0.621-2.037c0.147-1.292-0.489-2.17-1.773-2.381
					c-0.854-0.141-1.716-0.157-2.578-0.135c-0.42,0.011-0.623,0.194-0.703,0.623c-0.089,0.482-0.16,0.968-0.238,1.452
					c-0.178,1.111-0.35,2.223-0.536,3.331C14.682,57.699,14.749,57.825,15.07,57.803z"/>
			</g>
		</g>
		<g>
			<g>
				<path class="st5" d="M35.666,58.687c-2.711-0.476-5.045,1.471-5.059,4.219c-0.007,1.45,0.711,2.477,2.017,2.831
					c0.901,0.245,1.811,0.213,2.682-0.123c1.723-0.664,2.604-1.982,2.749-3.782C38.184,60.237,37.172,58.951,35.666,58.687z"/>
			</g>
		</g>
		<g>
			<g>
				<g>
					<path class="st7" d="M26.497,52.03c-0.18-1.628-1.071-2.846-2.546-3.605c-1.075-0.553-2.233-0.779-3.427-0.851
						c-1.58-0.095-3.162-0.039-4.52-0.054c-1.086,0-1.949-0.002-2.811,0.001c-0.491,0.002-0.984-0.014-1.472,0.028
						c-0.73,0.063-1.064,0.397-1.18,1.122c-0.294,1.844-0.582,3.689-0.873,5.534c-0.759,4.813-1.517,9.626-2.277,14.439
						c-0.101,0.639,0.165,0.969,0.804,0.97c1.138,0.003,2.277,0.002,3.415,0.001c0.891,0,1.257-0.324,1.393-1.202
						c0.263-1.704,0.531-3.407,0.801-5.11c0.104-0.658,0.51-1.014,1.181-1.023c0.863-0.011,1.726-0.01,2.588-0.002
						c0.794,0.007,1.58-0.069,2.356-0.226c1.802-0.363,3.406-1.114,4.559-2.589C26.196,57.28,26.797,54.753,26.497,52.03z
						 M19.939,56.553c-0.508,0.74-1.269,1.018-2.107,1.161c-0.559,0.096-1.122,0.076-1.684,0.084
						c-0.359-0.001-0.72-0.02-1.078,0.004c-0.322,0.022-0.388-0.103-0.339-0.396c0.186-1.109,0.358-2.221,0.536-3.331
						c0.078-0.485,0.149-0.97,0.238-1.452c0.079-0.429,0.283-0.612,0.703-0.623c0.862-0.022,1.725-0.006,2.578,0.135
						c1.284,0.212,1.92,1.089,1.773,2.381C20.477,55.238,20.36,55.939,19.939,56.553z"/>
				</g>
			</g>
		</g>
		<g>
			<g>
				<path class="st3" d="M68.356,47.575c-0.705,0-1.1,0.351-1.214,1.064c-0.15,0.934-0.294,1.869-0.441,2.804
					c-0.081,0.513-0.162,1.027-0.243,1.54l9.014-5.395C73.099,47.573,70.728,47.574,68.356,47.575z"/>
			</g>
		</g>
		<g>
			<g>
				<g>
					<path class="st7" d="M43.284,54.875c-1.234-0.031-2.469-0.026-3.702-0.001c-0.457,0.009-0.637,0.228-0.742,0.687
						c-0.058,0.253-0.039,0.523-0.181,0.822c-0.499-0.794-1.19-1.246-2.017-1.497c-1.391-0.422-2.815-0.484-4.231-0.209
						c-5.181,1.009-7.746,6.291-6.916,10.416c0.409,2.031,1.442,3.672,3.459,4.407c2.628,0.957,5.116,0.571,7.375-1.118
						c0.158-0.118,0.307-0.247,0.488-0.394c0.063,0.268-0.022,0.463-0.047,0.661c-0.084,0.683,0.154,0.966,0.838,0.967
						c0.353,0.001,0.707,0,1.06,0l3.479-2.083c0.35-2.193,0.7-4.386,1.047-6.579c0.273-1.727,0.549-3.453,0.805-5.182
						C44.081,55.219,43.832,54.888,43.284,54.875z M35.307,65.615c-0.872,0.336-1.781,0.367-2.682,0.123
						c-1.306-0.355-2.025-1.382-2.017-2.831c0.014-2.749,2.348-4.696,5.059-4.219c1.506,0.264,2.519,1.55,2.39,3.146
						C37.911,63.633,37.03,64.951,35.307,65.615z"/>
				</g>
			</g>
		</g>
		<g>
			<g>
				<path class="st7" d="M51.449,55.904c-0.174-0.59-0.508-0.998-1.14-1.026c-1.245-0.055-2.491-0.037-3.737-0.006
					c-0.082,0.002-0.167,0.024-0.246,0.05c-0.334,0.111-0.534,0.45-0.46,0.794c0.035,0.163,0.096,0.321,0.15,0.48
					c0.851,2.497,1.706,4.993,2.559,7.488l4.409-2.639C52.47,59.333,51.954,57.621,51.449,55.904z"/>
			</g>
		</g>
		<g>
			<g>
				<path class="st7" d="M63.223,54.853c-0.971,0.001-1.943,0.03-2.912-0.009c-0.799-0.032-1.348,0.25-1.792,0.935
					c-0.718,1.106-1.469,2.19-2.213,3.279l7.016-4.2C63.29,54.857,63.257,54.853,63.223,54.853z"/>
			</g>
		</g>
		<g>
			<g>
				<path class="st16" d="M92.257,58.683c-2.71-0.487-5.078,1.485-5.108,4.237c-0.015,1.353,0.754,2.456,1.981,2.809
					c0.7,0.202,1.414,0.232,2.132,0.079c1.899-0.407,3.105-1.721,3.367-3.805C94.834,60.368,93.917,58.981,92.257,58.683z"/>
			</g>
		</g>
		<g>
			<g>
				<path class="st16" d="M52.984,61.047c0.157,0.524,0.313,1.049,0.47,1.573c0.034,0.113,0.076,0.224,0.146,0.426
					c0.52-0.761,0.992-1.45,1.461-2.142c0.417-0.614,0.827-1.233,1.246-1.846L52.984,61.047z"/>
			</g>
		</g>
		<g>
			<g>
				<path class="st16" d="M75.35,52.121c-0.829-0.152-1.669-0.144-2.508-0.133c-0.455,0.007-0.697,0.195-0.77,0.644
					c-0.265,1.619-0.51,3.242-0.776,4.861c-0.044,0.266,0.072,0.313,0.289,0.31c0.383-0.004,0.767-0.001,1.251-0.001
					c0.462-0.006,1.026,0.018,1.585-0.08c0.823-0.144,1.584-0.403,2.088-1.13c0.475-0.686,0.629-1.464,0.634-2.284
					C77.15,52.998,76.633,52.356,75.35,52.121z"/>
			</g>
		</g>
		<g>
			<g>
				<g>
					<path class="st11" d="M83.087,52.139c-0.158-1.626-1.001-2.873-2.471-3.655c-1.124-0.598-2.338-0.881-3.595-0.894
						c-0.516-0.006-1.033,0-1.549-0.002l-9.014,5.395c-0.535,3.391-1.071,6.781-1.606,10.172c-0.288,1.822-0.576,3.644-0.861,5.466
						c-0.108,0.687,0.154,0.987,0.856,0.988c1.211,0.001,2.421,0.001,3.632,0c0.713-0.001,0.937-0.198,1.048-0.899
						c0.286-1.81,0.574-3.62,0.864-5.429c0.103-0.639,0.51-0.995,1.158-1.007c0.551-0.01,1.103-0.002,1.921-0.002
						c0.837,0.028,1.938,0.003,3.025-0.219c1.812-0.371,3.43-1.121,4.586-2.612C82.745,57.292,83.347,54.811,83.087,52.139z
						 M76.51,56.592c-0.504,0.728-1.265,0.986-2.088,1.13c-0.559,0.098-1.123,0.074-1.585,0.08c-0.484,0-0.868-0.003-1.251,0.001
						c-0.217,0.003-0.333-0.043-0.289-0.31c0.265-1.619,0.511-3.241,0.776-4.861c0.073-0.449,0.315-0.638,0.77-0.644
						c0.839-0.012,1.679-0.02,2.508,0.133c1.283,0.235,1.8,0.877,1.793,2.187C77.139,55.128,76.985,55.906,76.51,56.592z"/>
				</g>
			</g>
		</g>
		<g>
			<g>
				<path class="st10" d="M38.668,69.616c0.677,0,1.355,0.001,2.032,0c0.779-0.002,1.169-0.338,1.291-1.105
					c0.052-0.326,0.103-0.651,0.155-0.977L38.668,69.616z"/>
			</g>
		</g>
		<g>
			<g>
				<g>
					<path class="st11" d="M99.61,54.862c-0.851-0.011-1.702-0.005-2.553-0.002c-0.299,0.001-0.601-0.007-0.897,0.028
						c-0.471,0.056-0.62,0.207-0.716,0.668c-0.054,0.257-0.093,0.516-0.151,0.85c-0.09-0.096-0.136-0.134-0.167-0.181
						c-0.445-0.673-1.095-1.062-1.841-1.304c-1.423-0.46-2.88-0.503-4.333-0.223c-2.006,0.386-3.669,1.401-4.922,3.012
						c-1.858,2.387-2.575,5.069-1.769,8.037c0.439,1.616,1.374,2.938,2.958,3.603c2.732,1.146,5.316,0.772,7.704-0.977
						c0.159-0.116,0.308-0.418,0.461-0.325c0.184,0.112,0.005,0.395-0.021,0.599c-0.085,0.674,0.152,0.961,0.842,0.962
						c1.007,0.002,2.013,0.002,3.02,0.001c0.845-0.001,1.227-0.331,1.358-1.16c0.656-4.152,1.311-8.304,1.97-12.455
						C100.682,55.185,100.435,54.872,99.61,54.862z M94.628,62.002c-0.262,2.084-1.468,3.398-3.367,3.805
						c-0.718,0.154-1.431,0.123-2.132-0.079c-1.227-0.353-1.996-1.456-1.981-2.809c0.03-2.752,2.398-4.724,5.108-4.237
						C93.917,58.981,94.834,60.368,94.628,62.002z"/>
				</g>
			</g>
		</g>
		<g>
			<g>
				<path class="st10" d="M63.858,54.951c-0.169-0.076-0.352-0.089-0.535-0.093l-7.016,4.2c-0.419,0.613-0.829,1.232-1.246,1.846
					c-0.469,0.691-0.942,1.381-1.461,2.142c-0.07-0.203-0.112-0.313-0.146-0.426c-0.157-0.524-0.312-1.049-0.47-1.573l-4.409,2.639
					c0.461,1.347,0.918,2.695,1.381,4.041c0.098,0.284,0.059,0.481-0.112,0.72c-1.222,1.705-2.429,3.42-3.639,5.132
					c-0.174,0.246-0.288,0.505-0.119,0.801c0.164,0.29,0.423,0.404,0.75,0.403c1.186-0.003,2.373,0,3.559-0.002
					c0.478-0.001,0.845-0.195,1.12-0.597c0.791-1.157,1.595-2.306,2.394-3.458c2.622-3.781,5.244-7.562,7.866-11.344
					c0.771-1.113,1.544-2.225,2.309-3.342C64.381,55.606,64.279,55.138,63.858,54.951z"/>
			</g>
		</g>
		<g>
			<g>
				<path class="st11" d="M108.382,47.526c-1.006-0.01-2.013-0.009-3.019,0c-0.694,0.006-0.919,0.203-1.028,0.884
					c-0.228,1.419-0.446,2.838-0.67,4.257c-0.592,3.76-1.185,7.52-1.776,11.281c-0.249,1.584-0.504,3.168-0.737,4.755
					c-0.092,0.629,0.164,0.9,0.789,0.904c0.503,0.003,1.006,0.001,1.509,0.001c0.479,0,0.958,0.001,1.437,0
					c0.827-0.002,1.187-0.291,1.318-1.109c0.419-2.612,0.826-5.226,1.24-7.839c0.633-3.996,1.27-7.991,1.903-11.988
					C109.48,47.84,109.226,47.534,108.382,47.526z"/>
			</g>
		</g>
	</g>
	<g>
		<g>
			<path class="st2" d="M52.423,79.709H14.837c-0.472,0-0.859,0.387-0.859,0.859v0.113c0,0.472,0.387,0.859,0.859,0.859h37.587
				c0.472,0,0.859-0.387,0.859-0.859v-0.113C53.282,80.095,52.896,79.709,52.423,79.709z"/>
		</g>
	</g>
	<g>
		<g>
			<path class="st2" d="M52.423,84.396H14.837c-0.472,0-0.859,0.386-0.859,0.859v0.114c0,0.472,0.387,0.859,0.859,0.859h37.587
				c0.472,0,0.859-0.386,0.859-0.859v-0.114C53.282,84.782,52.896,84.396,52.423,84.396z"/>
		</g>
	</g>
	<g>
		<g>
			<path class="st9" d="M52.423,79.709H21.807l-3.06,1.832h33.676c0.472,0,0.859-0.387,0.859-0.859v-0.113
				C53.282,80.095,52.896,79.709,52.423,79.709z"/>
		</g>
	</g>
	<g>
		<g>
			<path class="st9" d="M52.423,84.396H14.837c-0.472,0-0.859,0.386-0.859,0.859v0.114c0,0.472,0.387,0.859,0.859,0.859h37.587
				c0.472,0,0.859-0.386,0.859-0.859v-0.114C53.282,84.782,52.896,84.396,52.423,84.396z"/>
		</g>
	</g>
	<g>
		<g>
			<circle class="st11" cx="87.803" cy="80.676" r="4.888"/>
		</g>
	</g>
	<g>
		<g>
			<circle class="st0" cx="94.148" cy="80.676" r="4.888"/>
		</g>
	</g>
</g>
</svg>
